<svg xmlns="http://www.w3.org/2000/svg" width="8000" height="8000" viewBox="0 0 8000 8000"><defs><linearGradient id="a" x1="-3.135%" x2="100%" y1="0%" y2="100%"><stop offset="0%" stop-color="#154FEE"/><stop offset="100%" stop-color="#79FE0C"/></linearGradient></defs><g fill="none" fill-rule="evenodd"><polygon fill="url(#a)" points="-2 0 7998 0 7998 8000 6824.691 8000 -2 8000"/><path fill="#FFF" stroke="#979797" d="M7591.5,377.5 L7591.5,7590.5 L378.5,7590.5 L378.5,377.5 L7591.5,377.5 Z M1873.56138,2069.5 C1587.35653,2069.5 1369.13951,2150.87968 1218.88619,2313.59134 C1070.14634,2474.66404 995.009965,2704.94667 993.522532,3004.46036 L993.522532,3004.46036 L993.500002,3013.55432 L993.5,4986.44444 L993.522543,4995.54178 C995.010397,5295.0545 1070.14678,5525.33643 1218.88619,5686.40866 C1369.13951,5849.12032 1587.35653,5930.5 1873.56138,5930.5 C2159.76623,5930.5 2377.98325,5849.12032 2528.23657,5686.40866 C2676.97642,5525.33596 2752.11279,5295.05333 2753.60023,4995.53964 L2753.60023,4995.53964 L2753.62276,4986.44568 L2753.62276,3758.25 L1899.87728,3758.25 L1899.87728,4295.36111 L2194.85213,4295.36111 L2194.85213,5029.33333 L2194.8445,5032.96526 C2194.34122,5152.51865 2168.92513,5242.34774 2118.5437,5302.42873 C2067.67864,5363.08646 1991.37154,5393.38889 1889.65092,5393.38889 C1788.94703,5393.38889 1713.15121,5363.68943 1662.29109,5304.23863 C1611.40702,5244.75982 1585.4878,5155.53333 1584.48026,5036.58375 L1584.48026,5036.58375 L1584.4497,5029.33123 L1584.44971,2976.02778 L1584.45733,2972.34233 C1584.96063,2851.02727 1610.37764,2759.87497 1660.76043,2698.90879 C1711.62498,2637.35965 1787.93122,2606.61111 1889.65092,2606.61111 C1990.35386,2606.61111 2066.14881,2636.74777 2117.00841,2697.07223 C2167.89387,2757.42738 2193.81401,2847.96823 2194.82158,2968.67061 L2194.82158,2968.67061 L2194.85213,2976.02985 L2194.85213,3335.72222 L2753.62276,3335.72222 L2753.62276,3013.55556 L2753.60022,3004.45822 C2752.11236,2704.9455 2676.97598,2474.66357 2528.23657,2313.59134 C2377.98325,2150.87968 2159.76623,2069.5 1873.56138,2069.5 Z M6097.43862,2069.5 C5811.23377,2069.5 5593.01675,2150.87968 5442.76343,2313.59134 C5294.02358,2474.66404 5218.88721,2704.94667 5217.39977,3004.46036 L5217.39977,3004.46036 L5217.37724,3013.55432 L5217.37724,4986.44444 L5217.39978,4995.54178 C5218.88764,5295.0545 5294.02402,5525.33643 5442.76343,5686.40866 C5593.01675,5849.12032 5811.23377,5930.5 6097.43862,5930.5 C6383.64347,5930.5 6601.86049,5849.12032 6752.11381,5686.40866 C6900.85366,5525.33596 6975.99004,5295.05333 6977.47747,4995.53964 L6977.47747,4995.53964 L6977.5,4986.44568 L6977.5,3758.25 L6123.75452,3758.25 L6123.75452,4295.36111 L6418.72937,4295.36111 L6418.72937,5029.33333 L6418.72174,5032.96526 C6418.21846,5152.51865 6392.80237,5242.34774 6342.42094,5302.42873 C6291.55588,5363.08646 6215.24878,5393.38889 6113.52816,5393.38889 C6012.82427,5393.38889 5937.02845,5363.68943 5886.16833,5304.23863 C5835.28426,5244.75982 5809.36504,5155.53333 5808.3575,5036.58375 L5808.3575,5036.58375 L5808.32694,5029.33123 L5808.32695,2976.02778 L5808.33457,2972.34233 C5808.83787,2851.02727 5834.25488,2759.87497 5884.63767,2698.90879 C5935.50222,2637.35965 6011.80846,2606.61111 6113.52816,2606.61111 C6214.2311,2606.61111 6290.02606,2636.74777 6340.88565,2697.07223 C6391.77111,2757.42738 6417.69125,2847.96823 6418.69882,2968.67061 L6418.69882,2968.67061 L6418.72937,2976.02985 L6418.72937,3335.72222 L6977.5,3335.72222 L6977.5,3013.55556 L6977.47746,3004.45822 C6975.9896,2704.9455 6900.85322,2474.66357 6752.11381,2313.59134 C6601.86049,2150.87968 6383.64347,2069.5 6097.43862,2069.5 Z M3985.04941,2069.5 C3698.84455,2069.5 3480.62752,2150.88904 3330.37419,2313.61944 C3181.63436,2474.71067 3106.49799,2705.01977 3105.01056,3004.56791 L3105.01056,3004.56791 L3104.98803,3013.66292 L3104.98803,3378.76167 L3663.75866,3378.76167 L3663.75866,2976.13206 L3663.76628,2972.44619 C3664.26958,2851.11714 3689.6866,2759.95432 3740.0694,2698.98112 C3790.93395,2637.4249 3867.24017,2606.67282 3968.95987,2606.67282 C4068.89551,2606.67282 4144.75351,2637.87427 4196.51001,2700.32212 C4248.30472,2762.81606 4274.16108,2874.42605 4274.16108,3035.11107 C4274.16108,3213.75649 4232.16713,3385.2558 4148.18113,3549.60945 C4064.17367,3714.0051 3913.13467,3912.34886 3695.07318,4144.64659 C3473.34979,4377.03562 3319.57741,4588.87292 3233.74815,4780.14889 C3148.77005,4969.52798 3105.85068,5196.57846 3105.0009,5461.30298 L3105.0009,5461.30298 L3104.98803,5469.33485 L3104.98803,5877.32699 L4811.47899,5877.32699 L4811.47899,5340.15417 L3690.57455,5340.15417 L3690.57455,5260.22825 L3690.58366,5256.26545 C3691.18503,5125.57268 3721.55418,5002.75747 3781.69162,4887.81994 C3842.45996,4771.6766 3960.42696,4620.69388 4135.58227,4434.86507 C4403.78223,4152.43755 4592.41268,3902.18147 4701.48101,3684.10383 C4810.56871,3465.98746 4865.11078,3242.50729 4865.11078,3013.66416 C4865.11078,2709.67836 4789.96643,2476.33737 4639.72462,2313.61944 C4489.47129,2150.88904 4271.25426,2069.5 3985.04941,2069.5 Z"/></g></svg>